<svg width="52" height="52" viewBox="0 0 52 52" fill="none" xmlns="http://www.w3.org/2000/svg">
<g id="company (2) 1" clip-path="url(#clip0_18_201)">
<g id="XMLID 1">
<path id="Vector" d="M30.3333 19.6949L49.4217 23.4866C50.96 23.8116 52 25.1116 52 26.6499V48.75C52 50.5483 50.5483 52 48.75 52H29.25C29.8567 52 30.3333 51.5233 30.3333 50.9166V49.8333H48.75C49.335 49.8333 49.8333 49.3566 49.8333 48.75V26.6499C49.8333 26.1516 49.4867 25.6966 48.9883 25.5883L30.3333 21.9049V19.6949Z" fill="#4C8BF5"/>
<path id="Vector_2" d="M42.2502 30.3333C42.8568 30.3333 43.3335 30.8099 43.3335 31.4166C43.3335 32.0232 42.8568 32.4999 42.2502 32.4999H37.9168C37.3102 32.4999 36.8335 32.0232 36.8335 31.4166C36.8335 30.8099 37.3102 30.3333 37.9168 30.3333H42.2502Z" fill="#4C8BF5"/>
<path id="Vector_3" d="M42.2502 36.8333C42.8568 36.8333 43.3335 37.3099 43.3335 37.9166C43.3335 38.5232 42.8568 38.9999 42.2502 38.9999H37.9168C37.3102 38.9999 36.8335 38.5232 36.8335 37.9166C36.8335 37.3099 37.3102 36.8333 37.9168 36.8333H42.2502Z" fill="#4C8BF5"/>
<path id="Vector_4" d="M42.2502 43.3333C42.8568 43.3333 43.3335 43.8099 43.3335 44.4166C43.3335 45.0232 42.8568 45.4999 42.2502 45.4999H37.9168C37.3102 45.4999 36.8335 45.0232 36.8335 44.4166C36.8335 43.8099 37.3102 43.3333 37.9168 43.3333H42.2502Z" fill="#4C8BF5"/>
<path id="Vector_5" d="M30.3332 50.9166C30.3332 51.5233 29.8565 51.9999 29.2498 51.9999C28.6432 51.9999 28.1665 51.5233 28.1665 50.9166V49.8333V20.5833C28.1665 20.2583 28.3182 19.9549 28.5565 19.7382C28.8165 19.5432 29.1415 19.4566 29.4665 19.5216L30.3332 19.6949V21.9049V49.8333V50.9166Z" fill="#4C8BF5"/>
<path id="Vector_6" d="M28.1668 49.8333V50.9166C28.1668 51.5233 28.6435 51.9999 29.2502 51.9999H20.5835C21.1902 51.9999 21.6668 51.5233 21.6668 50.9166V49.8333H28.1668Z" fill="#4C8BF5"/>
<path id="Vector_7" d="M22.7502 10.8333C23.3568 10.8333 23.8335 11.3099 23.8335 11.9166C23.8335 12.5233 23.3568 12.9999 22.7502 12.9999H18.4168C17.8102 12.9999 17.3335 12.5233 17.3335 11.9166C17.3335 11.3099 17.8102 10.8333 18.4168 10.8333H22.7502Z" fill="#4C8BF5"/>
<path id="Vector_8" d="M23.8335 18.4166C23.8335 19.0233 23.3568 19.4999 22.7502 19.4999H18.4168C17.8102 19.4999 17.3335 19.0233 17.3335 18.4166C17.3335 17.8099 17.8102 17.3333 18.4168 17.3333H22.7502C23.3568 17.3333 23.8335 17.8099 23.8335 18.4166Z" fill="#4C8BF5"/>
<path id="Vector_9" d="M22.7502 23.8333C23.3568 23.8333 23.8335 24.3099 23.8335 24.9166C23.8335 25.5232 23.3568 25.9999 22.7502 25.9999H18.4168C17.8102 25.9999 17.3335 25.5232 17.3335 24.9166C17.3335 24.3099 17.8102 23.8333 18.4168 23.8333H22.7502Z" fill="#4C8BF5"/>
<path id="Vector_10" d="M22.7502 30.3333C23.3568 30.3333 23.8335 30.8099 23.8335 31.4166C23.8335 32.0232 23.3568 32.4999 22.7502 32.4999H18.4168C17.8102 32.4999 17.3335 32.0232 17.3335 31.4166C17.3335 30.8099 17.8102 30.3333 18.4168 30.3333H22.7502Z" fill="#4C8BF5"/>
<path id="Vector_11" d="M13 31.4166C13 32.0232 12.5233 32.4999 11.9167 32.4999H7.58333C6.97667 32.4999 6.5 32.0232 6.5 31.4166C6.5 30.8099 6.97667 30.3333 7.58333 30.3333H11.9167C12.5233 30.3333 13 30.8099 13 31.4166Z" fill="#4C8BF5"/>
<path id="Vector_12" d="M11.9167 10.8333C12.5233 10.8333 13 11.3099 13 11.9166C13 12.5233 12.5233 12.9999 11.9167 12.9999H7.58333C6.97667 12.9999 6.5 12.5233 6.5 11.9166C6.5 11.3099 6.97667 10.8333 7.58333 10.8333H11.9167Z" fill="#4C8BF5"/>
<path id="Vector_13" d="M11.9167 17.3333C12.5233 17.3333 13 17.8099 13 18.4166C13 19.0233 12.5233 19.4999 11.9167 19.4999H7.58333C6.97667 19.4999 6.5 19.0233 6.5 18.4166C6.5 17.8099 6.97667 17.3333 7.58333 17.3333H11.9167Z" fill="#4C8BF5"/>
<path id="Vector_14" d="M11.9167 23.8333C12.5233 23.8333 13 24.3099 13 24.9166C13 25.5232 12.5233 25.9999 11.9167 25.9999H7.58333C6.97667 25.9999 6.5 25.5232 6.5 24.9166C6.5 24.3099 6.97667 23.8333 7.58333 23.8333H11.9167Z" fill="#4C8BF5"/>
<path id="Vector_15" d="M19.4998 40.0833C19.4998 39.4766 19.0015 38.9999 18.4165 38.9999H11.9165C11.3098 38.9999 10.8332 39.4766 10.8332 40.0833V49.8333H8.6665V40.0833C8.6665 38.2849 10.1182 36.8333 11.9165 36.8333H18.4165C20.2148 36.8333 21.6665 38.2849 21.6665 40.0833V49.8333H19.4998V40.0833Z" fill="#4C8BF5"/>
<path id="Vector_16" d="M10.8332 49.8333H19.4998H21.6665V50.9166C21.6665 51.5233 21.1898 51.9999 20.5832 51.9999H9.74984C9.14317 51.9999 8.6665 51.5233 8.6665 50.9166V49.8333H10.8332Z" fill="#4C8BF5"/>
<path id="Vector_17" d="M3.79167 0.433296L27.6033 4.05163C29.185 4.31163 30.3333 5.65496 30.3333 7.2583V19.695L29.4667 19.5216C29.1417 19.4566 28.8167 19.5433 28.5567 19.7383C28.3183 19.955 28.1667 20.2583 28.1667 20.5833V7.2583C28.1667 6.71663 27.7767 6.26163 27.2567 6.17496L3.445 2.5783C3.38 2.55663 3.315 2.55663 3.25 2.55663C2.99 2.55663 2.75167 2.6433 2.55667 2.81663C2.29667 3.0333 2.16667 3.31496 2.16667 3.63996V48.75C2.16667 49.3566 2.665 49.8333 3.25 49.8333H8.66667V50.9166C8.66667 51.5233 9.14333 52 9.75 52H3.25C1.45167 52 0 50.5483 0 48.75V3.63996C0 2.68663 0.411667 1.77663 1.14833 1.16996C1.885 0.541629 2.83833 0.281629 3.79167 0.433296Z" fill="#4C8BF5"/>
</g>
</g>
<defs>
<clipPath id="clip0_18_201">
<rect width="52" height="52" fill="white"/>
</clipPath>
</defs>
</svg>
