<svg width="52" height="52" viewBox="0 0 52 52" fill="none" xmlns="http://www.w3.org/2000/svg">
<g id="dimensions 1">
<g id="Outline">
<path id="Vector" d="M40.625 11.325H3.25C3.02125 11.325 2.80187 11.4159 2.64012 11.5776C2.47837 11.7394 2.3875 11.9588 2.3875 12.1875V47.125C2.3875 47.3537 2.47837 47.5731 2.64012 47.7349C2.80187 47.8966 3.02125 47.9875 3.25 47.9875H40.625C40.8538 47.9875 41.0731 47.8966 41.2349 47.7349C41.3966 47.5731 41.4875 47.3537 41.4875 47.125V12.1875C41.4875 11.9588 41.3966 11.7394 41.2349 11.5776C41.0731 11.4159 40.8538 11.325 40.625 11.325ZM8.175 13.05H11.325V21.075H8.175V13.05ZM4.1125 13.05H6.45V21.9375C6.45 22.1662 6.54087 22.3856 6.70262 22.5474C6.86437 22.7091 7.08375 22.8 7.3125 22.8H12.1875C12.4163 22.8 12.6356 22.7091 12.7974 22.5474C12.9591 22.3856 13.05 22.1662 13.05 21.9375V13.05H15.3875V46.2625H4.1125V13.05ZM39.7625 46.2625H17.1125V13.05H39.7625V46.2625Z" fill="#4C8BF5" stroke="#4C8BF5" stroke-width="0.1"/>
<path id="Vector_2" d="M36.5625 43.0125H36.5125V43.0625V44.6875V44.7375H36.5625H38.1875H38.2375V44.6875V43.0625V43.0125H38.1875H36.5625Z" fill="#4C8BF5" stroke="#4C8BF5" stroke-width="0.1"/>
<path id="Vector_3" d="M33.3125 43.0125H33.2625V43.0625V44.6875V44.7375H33.3125H34.9375H34.9875V44.6875V43.0625V43.0125H34.9375H33.3125Z" fill="#4C8BF5" stroke="#4C8BF5" stroke-width="0.1"/>
<path id="Vector_4" d="M30.0625 43.0125H30.0125V43.0625V44.6875V44.7375H30.0625H31.6875H31.7375V44.6875V43.0625V43.0125H31.6875H30.0625Z" fill="#4C8BF5" stroke="#4C8BF5" stroke-width="0.1"/>
<path id="Vector_5" d="M24.375 21.175H32.5C33.1597 21.175 33.7924 20.9129 34.2589 20.4464C34.7254 19.9799 34.9875 19.3472 34.9875 18.6875C34.9875 18.0278 34.7254 17.3951 34.2589 16.9286C33.7924 16.4621 33.1597 16.2 32.5 16.2H24.375C23.7153 16.2 23.0826 16.4621 22.6161 16.9286C22.1496 17.3951 21.8875 18.0278 21.8875 18.6875C21.8875 19.3472 22.1496 19.9799 22.6161 20.4464C23.0826 20.9129 23.7153 21.175 24.375 21.175ZM24.375 17.925H32.5C32.7022 17.925 32.8962 18.0053 33.0392 18.1483C33.1822 18.2913 33.2625 18.4853 33.2625 18.6875C33.2625 18.8897 33.1822 19.0837 33.0392 19.2267C32.8962 19.3697 32.7022 19.45 32.5 19.45H24.375C24.1728 19.45 23.9788 19.3697 23.8358 19.2267C23.6928 19.0837 23.6125 18.8897 23.6125 18.6875C23.6125 18.4853 23.6928 18.2913 23.8358 18.1483C23.9788 18.0053 24.1728 17.925 24.375 17.925Z" fill="#4C8BF5" stroke="#4C8BF5" stroke-width="0.1"/>
<path id="Vector_6" d="M49.5625 13.05H49.6125V13V11.375V11.325H49.5625H43.0625H43.0125V11.375V13V13.05H43.0625H45.45V46.2625H43.0625H43.0125V46.3125V47.9375V47.9875H43.0625H49.5625H49.6125V47.9375V46.3125V46.2625H49.5625H47.175V13.05H49.5625Z" fill="#4C8BF5" stroke="#4C8BF5" stroke-width="0.1"/>
<path id="Vector_7" d="M39.7625 3.25V5.6375H17.1125V3.25V3.2H17.0625H15.4375H15.3875V3.25V5.6375H4.1125V3.25V3.2H4.0625H2.4375H2.3875V3.25V9.75V9.8H2.4375H4.0625H4.1125V9.75V7.3625H15.3875V9.75V9.8H15.4375H17.0625H17.1125V9.75V7.3625H39.7625V9.75V9.8H39.8125H41.4375H41.4875V9.75V3.25V3.2H41.4375H39.8125H39.7625V3.25Z" fill="#4C8BF5" stroke="#4C8BF5" stroke-width="0.1"/>
</g>
</g>
</svg>
