<svg width="80" height="80" viewBox="0 0 80 80" fill="none" xmlns="http://www.w3.org/2000/svg">
<path id="house 1 (Traced)" fill-rule="evenodd" clip-rule="evenodd" d="M45.9677 4.56722C40.246 7.07197 35.4013 9.27765 35.2016 9.46865C34.85 9.80499 34.8387 9.91227 34.8387 12.894C34.8387 15.947 34.8419 15.9753 35.2347 16.368C35.751 16.8845 36.1911 16.8674 37.5 16.2801C38.0932 16.0139 38.6079 15.7961 38.644 15.7961C38.6802 15.7961 38.7097 17.4657 38.7097 19.5064V23.2167H21.0411H3.37242L2.97661 23.6127C2.59113 23.9981 2.58065 24.0734 2.58065 26.443C2.58065 28.8126 2.59113 28.8879 2.97661 29.2733C3.3579 29.6548 3.45258 29.6693 5.55726 29.6693H7.74194V32.8956V36.122H5.55726C3.45258 36.122 3.3579 36.1365 2.97661 36.518C2.59113 36.9034 2.58065 36.9787 2.58065 39.3483C2.58065 41.7179 2.59113 41.7932 2.97661 42.1786C3.30161 42.5038 3.53226 42.5746 4.26694 42.5746H5.16129V58.061V73.5473H2.97661C0.871935 73.5473 0.777258 73.5619 0.395968 73.9434C0.0104838 74.3288 0 74.4041 0 76.7737C0 79.1432 0.0104838 79.2186 0.395968 79.604L0.791774 80H40H79.2082L79.604 79.604C79.9895 79.2186 80 79.1432 80 76.7737C80 74.4041 79.9895 74.3288 79.604 73.9434C79.2227 73.5619 79.1281 73.5473 77.0234 73.5473H74.8387V58.061V42.5746H75.7331C76.4677 42.5746 76.6984 42.5038 77.0234 42.1786C77.4089 41.7932 77.4193 41.7179 77.4193 39.3483C77.4193 36.9787 77.4089 36.9034 77.0234 36.518C76.6984 36.1928 76.4677 36.122 75.7331 36.122H74.8387V25.959C74.8387 20.3694 74.8682 15.7961 74.9044 15.7961C74.9405 15.7961 75.4552 16.0139 76.0484 16.2801C77.3573 16.8674 77.7974 16.8845 78.3137 16.368C78.7063 15.9755 78.7097 15.9455 78.7097 12.9176C78.7097 10.2436 78.6745 9.82145 78.4274 9.52866C78.0955 9.13537 57.24 -0.0191665 56.7198 3.01482e-05C56.5279 0.00712806 51.6895 2.06246 45.9677 4.56722ZM66.3085 6.85807C71.4881 9.12892 75.8166 11.0241 75.9274 11.0696C76.0626 11.1252 76.129 11.5387 76.129 12.3251V13.4975L66.6011 9.32347C61.3608 7.02761 56.9439 5.14925 56.7856 5.14925C56.5635 5.14925 44.9939 10.1421 38.3468 13.1063L37.4194 13.5199V12.3404V11.161L46.9758 6.9626C52.2318 4.65352 56.6131 2.75644 56.7118 2.74692C56.8105 2.73741 61.129 4.58738 66.3085 6.85807ZM64.5316 11.242L72.1774 14.5924L72.2189 25.3572L72.2603 36.122H56.7742H41.2881L41.3295 25.3633L41.371 14.6046L48.9516 11.2639C53.121 9.42655 56.6118 7.91598 56.709 7.90743C56.8063 7.89872 60.3265 9.39928 64.5316 11.242ZM42.9766 17.16L42.5806 17.5559V22.5714V27.5869L42.9766 27.9828L43.3724 28.3788H49.0323H54.6921L55.0879 27.9828L55.4839 27.5869V22.5714V17.5559L55.0879 17.16L54.6921 16.764H49.0323H43.3724L42.9766 17.16ZM58.4605 17.16L58.0645 17.5559V22.5714V27.5869L58.4605 27.9828L58.8563 28.3788H64.5161H70.176L70.5718 27.9828L70.9677 27.5869V22.5714V17.5559L70.5718 17.16L70.176 16.764H64.5161H58.8563L58.4605 17.16ZM52.9032 22.5714V25.7977H49.0323H45.1613V22.5714V19.3451H49.0323H52.9032V22.5714ZM68.3871 22.5714V25.7977H64.5161H60.6452V22.5714V19.3451H64.5161H68.3871V22.5714ZM38.7097 26.443V27.0883H21.9355H5.16129V26.443V25.7977H21.9355H38.7097V26.443ZM15.4839 32.8956V36.122H12.9032H10.3226V32.8956V29.6693H12.9032H15.4839V32.8956ZM23.2258 32.8956V36.122H20.6452H18.0645V32.8956V29.6693H20.6452H23.2258V32.8956ZM30.9677 32.8956V36.122H28.3871H25.8064V32.8956V29.6693H28.3871H30.9677V32.8956ZM38.7097 32.8956V36.122H36.129H33.5484V32.8956V29.6693H36.129H38.7097V32.8956ZM74.8387 39.3483V39.9936H40H5.16129V39.3483V38.703H40H74.8387V39.3483ZM38.7097 58.061V73.5473H37.4194H36.129V64.5136C36.129 56.4731 36.1564 55.4799 36.3782 55.4799C36.5153 55.4799 36.8056 55.3017 37.0234 55.0839C37.4089 54.6985 37.4194 54.6232 37.4194 52.2536C37.4194 49.884 37.4089 49.8087 37.0234 49.4233L36.6276 49.0273H23.2258H9.82403L9.42823 49.4233C9.04274 49.8087 9.03226 49.884 9.03226 52.2536C9.03226 54.6232 9.04274 54.6985 9.42823 55.0839C9.64597 55.3017 9.93629 55.4799 10.0734 55.4799C10.2952 55.4799 10.3226 56.4731 10.3226 64.5136V73.5473H9.03226H7.74194V58.061V42.5746H23.2258H38.7097V58.061ZM72.2581 58.061V73.5473H64.5161H56.7742V64.9097V56.2718L56.3782 55.876L55.9824 55.4799H49.6774H43.3724L42.9766 55.876L42.5806 56.2718V64.9097V73.5473H41.9355H41.2903V58.061V42.5746H56.7742H72.2581V58.061ZM34.8387 52.2536V52.8989H23.2258H11.6129V52.2536V51.6083H23.2258H34.8387V52.2536ZM33.5484 64.5136V73.5473H23.2258H12.9032V64.5136V55.4799H23.2258H33.5484V64.5136ZM58.4605 55.876L58.0645 56.2718V61.2873V66.3028L58.4605 66.6987L58.8563 67.0947H64.5161H70.176L70.5718 66.6987L70.9677 66.3028V61.2873V56.2718L70.5718 55.876L70.176 55.4799H64.5161H58.8563L58.4605 55.876ZM54.1935 65.8042V73.5473H49.6774H45.1613V65.8042V58.061H49.6774H54.1935V65.8042ZM68.3871 61.2873V64.5136H64.5161H60.6452V61.2873V58.061H64.5161H68.3871V61.2873ZM50.7185 63.6191C50.3458 63.9919 50.3226 64.1197 50.3226 65.8042C50.3226 67.4886 50.3458 67.6164 50.7185 67.9892C50.9681 68.2389 51.2987 68.3852 51.6129 68.3852C51.9271 68.3852 52.2577 68.2389 52.5073 67.9892C52.88 67.6164 52.9032 67.4886 52.9032 65.8042C52.9032 64.1197 52.88 63.9919 52.5073 63.6191C52.2577 63.3694 51.9271 63.2231 51.6129 63.2231C51.2987 63.2231 50.9681 63.3694 50.7185 63.6191ZM77.4193 76.7737V77.4189H40H2.58065V76.7737V76.1284H40H77.4193V76.7737Z" fill="#4C8BF5"/>
</svg>
