<svg width="86" height="80" viewBox="0 0 86 80" fill="none" xmlns="http://www.w3.org/2000/svg">
<path id="money 1 (Traced)" fill-rule="evenodd" clip-rule="evenodd" d="M19.8595 3.35102C13.1837 7.01411 12.5621 7.4579 12.1925 8.8264C11.9175 9.84499 12.1003 13.3951 12.532 15.4214C13.5901 20.3884 16.4019 25.9148 19.7573 29.6221L20.637 30.5942L20.2154 32.5183C19.2146 37.0868 19.19 41.4426 20.1394 45.9417C20.3272 46.8318 20.4926 47.6206 20.5068 47.6943C20.5211 47.7683 19.8857 48.0775 19.0949 48.3817C18.3041 48.6858 17.4142 49.1098 17.1175 49.3237L16.578 49.7126L16.3986 49.2351C15.7523 47.5144 14.801 46.425 13.2885 45.6733L12.286 45.175H8.24674H4.20752L3.23508 45.6735C2.08743 46.2618 0.87954 47.5071 0.366727 48.6305C0.000168289 49.4337 0 49.4407 0 62.2963V75.1585L0.46653 76.1198C1.03471 77.2907 2.14331 78.3582 3.42071 78.9643C4.36808 79.4139 4.40712 79.4175 8.24674 79.4175C12.0863 79.4175 12.1254 79.4139 13.0728 78.9643C14.9636 78.067 16.3176 76.3329 16.5275 74.5402C16.5884 74.0191 16.6981 73.723 16.8124 73.7709C16.9147 73.8138 19.383 74.9346 22.2975 76.2614C25.212 77.5883 28.1278 78.8183 28.7771 78.9948C30.5705 79.4822 32.2813 79.6701 36.5213 79.8454C41.5184 80.0519 60.559 80.0514 62.1311 79.8446C63.5887 79.6529 65.0142 79.1654 65.982 78.5275C66.638 78.0952 82.486 63.397 84.2179 61.6148C84.6275 61.1932 85.1962 60.3499 85.4813 59.7409C85.9413 58.7591 86 58.4597 86 57.1003C86 55.7287 85.9431 55.4454 85.4608 54.4128C84.5284 52.4174 82.7664 51.0422 80.4898 50.5332C79.9577 50.4141 79.5221 50.3041 79.5221 50.2886C79.5221 50.2731 79.7141 49.6911 79.9487 48.9954C80.8256 46.3953 81.2268 43.8881 81.3244 40.401C81.4465 36.0449 81.1067 33.4609 79.9136 29.6722C78.7138 25.8614 75.9006 20.7884 74.7075 20.2838C73.5595 19.7983 72.4535 20.5539 72.4535 21.8237C72.4535 22.2713 72.7286 22.8452 73.5562 24.1238C75.4383 27.0315 76.7655 30.2918 77.5313 33.8888C77.8462 35.3677 77.9042 36.1822 77.9105 39.2124C77.919 43.2706 77.7146 44.7536 76.7125 47.8999C75.9508 50.2913 75.4622 51.2637 74.7723 51.7607C74.4689 51.9791 71.6078 54.6041 68.4143 57.5938C65.2207 60.5836 62.3428 63.1522 62.0188 63.3019C61.5025 63.5404 60.0788 63.5804 50.4902 63.6264C43.0284 63.6622 39.3539 63.6206 38.932 63.4956C37.1625 62.9712 36.9099 60.6695 38.5237 59.7748C38.982 59.5208 39.8588 59.4749 45.6979 59.4001L52.3499 59.315L53.4604 58.7613C55.4909 57.7488 56.7948 55.8064 56.8984 53.6394C56.9493 52.5774 56.9809 52.5021 57.5143 52.1695C58.673 51.4474 59.343 50.8141 59.9965 49.8237C62.839 45.5149 60.9804 39.839 56.1461 38.0642C55.3147 37.7589 54.6429 37.7052 50.4902 37.6124C45.2049 37.494 45.2692 37.5083 44.0662 36.1873C42.1634 34.0975 42.7104 30.8992 45.2106 29.4974L46.1144 28.9908L53.3241 28.9056L60.5337 28.8204L60.9397 28.3424C61.5122 27.6683 61.4806 26.8494 60.8549 26.14L60.3639 25.5836L56.2266 25.5325L52.0891 25.4815V23.0917V20.7021L51.5971 20.2041C51.0426 19.6428 50.3435 19.554 49.589 19.9489C48.8623 20.3293 48.7231 20.8666 48.7231 23.2917V25.4984H47.7361C43.553 25.4984 40.2554 28.2124 39.604 32.1915C38.9256 36.3355 42.0173 40.4455 46.2294 40.9992C46.9066 41.0883 49.0932 41.1634 51.0884 41.1663C54.6489 41.1714 54.7319 41.1797 55.5906 41.6128C58.0515 42.854 58.7255 46.0316 56.9824 48.1722C56.7167 48.4984 56.2367 48.9085 55.9157 49.0834L55.3321 49.4017L54.6782 48.872C54.3187 48.5805 53.6459 48.1662 53.183 47.9512L52.3415 47.5601L38.1677 47.5137L23.9938 47.4674L23.8257 46.8323C22.7714 42.8489 22.571 38.6783 23.2422 34.6938C23.3916 33.8059 23.5269 33.0646 23.5426 33.0464C23.5584 33.0282 24.0896 33.2774 24.723 33.6001C26.2739 34.3902 26.9727 34.3806 28.5138 33.5479C32.1757 31.5694 35.6564 27.4918 38.2054 22.1939C39.4677 19.5704 40.1569 17.5388 40.6347 15.033C40.8252 14.0331 40.9812 13.1832 40.9812 13.144C40.9812 13.105 41.6167 12.8767 42.3936 12.637C48.0871 10.8791 54.3438 11.0624 59.9151 13.1502C62.5498 14.1376 63.1296 14.143 63.7064 13.1852C64.3693 12.0847 63.9425 11.0912 62.5402 10.4707C56.4859 7.79129 48.4659 7.25943 42.1467 9.11789L41.0401 9.44345L40.834 8.66286C40.698 8.1482 40.4105 7.67613 39.9908 7.27783C39.1597 6.48923 27.462 0.100028 26.6757 0.00513743C26.1661 -0.0561924 25.2466 0.395093 19.8595 3.35102ZM32.0418 6.60184C34.9684 8.2022 37.4321 9.5794 37.5169 9.66253C37.745 9.88622 37.6401 12.7769 37.3505 14.2507C36.7005 17.557 35.0777 21.3903 32.9869 24.5582C31.7567 26.4224 29.1633 29.1315 27.7003 30.0809L26.621 30.7813L25.8013 30.3119C23.175 28.8082 20.0443 24.9965 18.0122 20.8285C16.4443 17.6127 15.6292 14.626 15.4493 11.437L15.3529 9.72693L20.888 6.71036C23.9324 5.05122 26.4902 3.69344 26.572 3.6931C26.654 3.69259 29.1154 5.00164 32.0418 6.60184ZM28.4278 14.2486L25.7907 16.9684L24.7606 16.0335C24.1939 15.5194 23.5601 15.0538 23.3517 14.9989C22.3374 14.7316 21.29 15.5495 21.29 16.609C21.29 17.4347 21.527 17.7473 23.568 19.6133C25.0403 20.9593 25.2143 21.069 25.8754 21.069C26.5834 21.069 26.6216 21.0363 29.9113 17.6192C32.0455 15.4023 33.2825 13.9868 33.3727 13.6583C33.6953 12.4849 32.9859 11.5288 31.7927 11.5288C31.0751 11.5288 31.0281 11.5668 28.4278 14.2486ZM67.7281 15.0933C66.7149 16.1189 67.2634 17.754 68.6852 17.947C69.2847 18.0284 69.4515 17.9729 69.9433 17.5281C70.4169 17.0998 70.5104 16.8972 70.5104 16.2989C70.5104 15.7061 70.4162 15.4976 69.9645 15.089C69.2174 14.4132 68.3984 14.4147 67.7281 15.0933ZM11.8618 48.7955C12.184 48.9593 12.6195 49.3538 12.8296 49.6722L13.2116 50.2511L13.2109 62.2789C13.2104 74.0517 13.2032 74.3186 12.87 74.8719C12.6611 75.2186 12.2336 75.5697 11.7639 75.78C11.0725 76.0895 10.7108 76.1173 8.02374 76.0665C4.79135 76.0053 4.42816 75.9099 3.70262 74.9312C3.37443 74.4884 3.36484 74.1755 3.32142 62.4666C3.279 51.0157 3.29163 50.4284 3.59154 49.8599C3.76438 49.532 4.20095 49.0925 4.56162 48.8831C5.17306 48.5284 5.42214 48.5025 8.24674 48.5001C10.7987 48.4979 11.3684 48.5446 11.8618 48.7955ZM52.1025 51.278C53.8571 52.2172 53.9638 54.4631 52.3035 55.5079C51.6717 55.9057 51.6332 55.9083 45.0205 55.9929L38.3726 56.0781L37.3234 56.5687C35.2742 57.5267 34.0331 59.3897 34.0188 61.5296C34.0045 63.6643 35.2403 65.5745 37.2537 66.5301L38.2043 66.9812L49.5114 67.0284C61.9099 67.0802 62.4158 67.0474 64.0433 66.0917C64.4868 65.8312 67.5125 63.1268 70.7673 60.0816C74.022 57.0364 76.9257 54.415 77.2199 54.2563C78.5172 53.5563 80.3306 53.7341 81.4539 54.6714C82.1446 55.2478 82.7102 56.3154 82.7161 57.0543C82.7265 58.3567 82.5295 58.5689 73.2691 67.2306C67.7468 72.3959 64.0872 75.6951 63.6333 75.9174C62.45 76.4973 60.561 76.6042 51.5842 76.5996C37.083 76.5921 31.0885 76.2885 28.9265 75.452C28.4753 75.2776 25.5124 73.9566 22.3419 72.5165L16.5776 69.8983V62.0257V54.1532L17.4779 53.3203C17.973 52.8622 18.8706 52.2421 19.4724 51.9421C21.5906 50.8865 21.1684 50.9119 36.9577 50.8963L51.3629 50.8821L52.1025 51.278Z" fill="#4C8BF5"/>
</svg>
