<svg width="52" height="52" viewBox="0 0 52 52" fill="none" xmlns="http://www.w3.org/2000/svg">
<g id="pin 1">
<g id="Group">
<g id="Group_2">
<g id="Group_3">
<path id="Vector" d="M30.9682 36.5097L38.7468 22.793C40.0219 20.4823 40.6956 17.8586 40.6956 15.2043C40.6956 6.82104 34.1029 0 26 0C17.897 0 11.3043 6.82104 11.3043 15.2043C11.3043 17.8903 11.9848 20.5174 13.2713 22.8043L21.0306 36.5097C13.893 37.4841 9.04346 40.4888 9.04346 44.087C9.04346 48.5985 16.3336 52 26 52C35.6675 52 42.9565 48.5985 42.9565 44.087C42.9565 40.4888 38.1069 37.483 30.9682 36.5097ZM15.2405 21.693C14.144 19.7464 13.5652 17.5025 13.5652 15.2043C13.5652 8.06791 19.1439 2.26087 26 2.26087C32.8561 2.26087 38.4348 8.06791 38.4348 15.2043C38.4348 17.4777 37.8582 19.7238 36.773 21.6885L26 40.6889L23.8408 36.8838L15.2405 21.693ZM26 49.7391C17.3397 49.7391 11.3043 46.7604 11.3043 44.087C11.3043 41.9391 15.3762 39.3708 22.2356 38.636L25.0165 43.5376C25.2177 43.8914 25.593 44.1096 26 44.1096C26.4069 44.1096 26.7822 43.8914 26.9835 43.5376L29.7643 38.636C36.6227 39.3708 40.6956 41.9391 40.6956 44.087C40.6956 46.7604 34.6602 49.7391 26 49.7391Z" fill="#4C8BF5"/>
<path id="Vector_2" d="M33.913 14.6956C33.913 10.3322 30.3623 6.78259 26 6.78259C21.6365 6.78259 18.0869 10.3322 18.0869 14.6956C18.0869 19.0591 21.6365 22.6087 26 22.6087C30.3623 22.6087 33.913 19.0591 33.913 14.6956ZM20.3478 14.6956C20.3478 11.579 22.8833 9.04346 26 9.04346C29.1166 9.04346 31.6521 11.579 31.6521 14.6956C31.6521 17.8122 29.1166 20.3478 26 20.3478C22.8833 20.3478 20.3478 17.8122 20.3478 14.6956Z" fill="#4C8BF5"/>
</g>
</g>
</g>
</g>
</svg>
